<?xml version="1.0" standalone="no"?>
<!DOCTYPE svg PUBLIC "-//W3C//DTD SVG 20010904//EN"
 "http://www.w3.org/TR/2001/REC-SVG-20010904/DTD/svg10.dtd">
<svg version="1.0" xmlns="http://www.w3.org/2000/svg"
 width="16.000000pt" height="16.000000pt" viewBox="0 0 16.000000 16.000000"
 preserveAspectRatio="xMidYMid meet">
<metadata>
Created by potrace 1.11, written by Peter Selinger 2001-2013
</metadata>
<g transform="translate(0.000000,16.000000) scale(0.005993,-0.005993)"
fill="#000000" stroke="none">
<path d="M1874 2011 c-2 -2 -45 -4 -96 -5 -91 -1 -92 -1 -99 -28 -22 -83 -31
-232 -16 -271 5 -14 24 -16 146 -16 133 0 161 -3 161 -19 0 -4 -74 -6 -165 -6
-114 1 -167 -2 -172 -10 -8 -12 -8 -13 -17 -76 -4 -25 -9 -56 -12 -70 -2 -14
-6 -38 -8 -55 -10 -75 -21 -146 -31 -194 -2 -14 -7 -45 -10 -70 -3 -25 -8 -59
-12 -76 -3 -16 -7 -40 -7 -51 -1 -20 -5 -22 -84 -19 -45 1 -85 -2 -88 -7 -3
-4 -13 -4 -22 0 -9 5 -39 8 -65 7 -57 -2 -63 6 -48 61 6 22 12 55 15 74 3 19
12 71 21 114 8 44 18 93 20 110 3 17 10 54 15 81 5 28 12 64 15 80 10 60 16
89 20 94 2 4 -2 31 -9 61 l-12 55 -162 2 c-100 2 -163 -1 -167 -8 -4 -5 -8
-24 -11 -42 -2 -18 -6 -41 -9 -52 -2 -11 -17 -75 -32 -142 -23 -101 -30 -120
-43 -114 -18 9 -132 7 -147 -2 -7 -4 -14 -4 -17 1 -2 4 -27 7 -55 6 -54 -1
-59 5 -42 48 5 13 19 64 31 115 19 79 20 98 10 130 -7 21 -17 43 -22 50 -11
13 -294 18 -315 5 -7 -4 -17 -30 -24 -57 -6 -28 -15 -59 -20 -70 -6 -17 -17
-55 -24 -90 -3 -12 -31 -110 -53 -179 -8 -28 -16 -57 -17 -65 -1 -9 -7 -29
-13 -44 -7 -16 -12 -34 -12 -41 0 -8 -9 -41 -20 -75 -11 -34 -21 -72 -23 -84
-2 -12 -9 -33 -14 -47 -10 -23 -25 -81 -28 -105 -1 -5 -4 -17 -8 -25 -4 -8
-13 -36 -20 -61 -13 -42 -12 -49 9 -97 13 -29 26 -52 31 -53 44 -6 132 -3 147
4 10 5 21 5 25 1 7 -11 141 -11 157 -1 10 6 37 91 39 122 1 6 6 26 13 45 6 19
13 49 16 65 2 17 8 42 14 56 6 14 13 46 17 70 l6 44 146 -2 c81 -2 149 -5 151
-8 3 -3 0 -27 -6 -53 -7 -26 -14 -58 -17 -72 -2 -14 -12 -56 -21 -93 -14 -57
-14 -75 -4 -112 16 -57 31 -68 83 -67 55 2 244 2 254 1 5 -1 13 0 18 1 6 1 90
1 187 1 114 -1 179 3 183 9 5 8 11 8 19 1 13 -11 140 -10 152 1 3 4 14 3 24
-2 17 -9 120 -12 151 -4 10 3 19 19 23 37 7 44 20 165 21 202 l0 30 168 0 c93
0 172 2 177 5 12 7 18 42 19 98 1 37 3 42 19 34 23 -12 139 -9 152 4 5 5 11
34 12 65 l2 55 83 -2 c95 -3 90 -9 98 111 3 44 7 88 8 99 5 29 -11 119 -22
126 -6 3 -40 5 -76 4 -64 -2 -65 -2 -66 24 -4 70 -5 81 -11 87 -3 4 -37 6 -75
6 l-68 0 -2 51 c-2 29 -9 55 -15 60 -7 4 -69 7 -138 6 -177 -1 -161 -5 -153
45 4 23 7 51 6 62 -1 64 -4 91 -11 102 -7 12 -118 24 -128 14z m351 -554 c56
-2 52 7 44 -103 l-4 -50 -83 1 c-45 1 -85 -2 -88 -7 -3 -4 -11 -5 -17 -1 -6 4
-39 7 -72 8 -67 0 -62 -8 -51 85 2 19 4 42 5 51 1 13 16 16 83 17 44 1 83 3
85 5 2 2 13 2 26 0 12 -2 45 -4 72 -6z"/>
</g>
</svg>
